<svg width="800" height="600" viewBox="0 0 800 600" fill="none" xmlns="http://www.w3.org/2000/svg">
  <!-- Background Elements -->
  <circle cx="400" cy="300" r="250" fill="url(#gradient1)" opacity="0.1"/>
  <circle cx="400" cy="300" r="200" fill="url(#gradient2)" opacity="0.15"/>
  <circle cx="400" cy="300" r="150" fill="url(#gradient3)" opacity="0.2"/>
  
  <!-- Document Stack -->
  <rect x="250" y="200" width="300" height="350" rx="10" fill="#1E3A8A" opacity="0.9"/>
  <rect x="270" y="180" width="300" height="350" rx="10" fill="#2563EB" opacity="0.8"/>
  <rect x="290" y="160" width="300" height="350" rx="10" fill="#3B82F6" opacity="0.7"/>
  
  <!-- Tax Form -->
  <rect x="310" y="140" width="300" height="350" rx="15" fill="#FFFFFF" stroke="#D1D5DB" stroke-width="1.5"/>
  
  <!-- Form Shadow -->
  <rect x="312" y="142" width="300" height="350" rx="15" fill="none" stroke="rgba(0, 0, 0, 0.05)" stroke-width="1"/>
  
  <!-- Form Header -->
  <rect x="330" y="160" width="260" height="40" rx="8" fill="#10B981" opacity="1"/>
  <text x="460" y="185" font-family="Arial" font-size="16" font-weight="bold" fill="white" text-anchor="middle">TAX RETURN</text>
  
  <!-- Form Lines -->
  <rect x="340" y="220" width="240" height="1" rx="0.5" fill="#E5E7EB"/>
  <rect x="340" y="260" width="240" height="1" rx="0.5" fill="#E5E7EB"/>
  <rect x="340" y="300" width="240" height="1" rx="0.5" fill="#E5E7EB"/>
  <rect x="340" y="340" width="240" height="1" rx="0.5" fill="#E5E7EB"/>
  <rect x="340" y="380" width="240" height="1" rx="0.5" fill="#E5E7EB"/>
  <rect x="340" y="420" width="240" height="1" rx="0.5" fill="#E5E7EB"/>
  
  <!-- Form Labels -->
  <text x="350" y="245" font-family="Arial" font-size="11" fill="#6B7280">Name:</text>
  <text x="350" y="285" font-family="Arial" font-size="11" fill="#6B7280">Income:</text>
  <text x="350" y="325" font-family="Arial" font-size="11" fill="#6B7280">Deductions:</text>
  <text x="350" y="365" font-family="Arial" font-size="11" fill="#6B7280">Credits:</text>
  <text x="350" y="405" font-family="Arial" font-size="11" fill="#6B7280">Total Tax:</text>
  
  <!-- Form Values -->
  <text x="570" y="245" font-family="Arial" font-size="11" fill="#1F2937" text-anchor="end">John Doe</text>
  <text x="570" y="285" font-family="Arial" font-size="11" fill="#1F2937" text-anchor="end">$75,000</text>
  <text x="570" y="325" font-family="Arial" font-size="11" fill="#1F2937" text-anchor="end">$12,500</text>
  <text x="570" y="365" font-family="Arial" font-size="11" fill="#1F2937" text-anchor="end">$2,000</text>
  <text x="570" y="405" font-family="Arial" font-size="11" fill="#10B981" font-weight="bold" text-anchor="end">$8,750</text>
  
  <!-- Checkmark -->
  <circle cx="560" y="450" r="20" fill="#10B981"/>
  <path d="M550 450 L557 457 L570 444" stroke="white" stroke-width="3" stroke-linecap="round" stroke-linejoin="round"/>
  
  <!-- Calculator -->
  <rect x="200" y="300" width="80" height="120" rx="5" fill="#1F2937"/>
  <rect x="210" y="310" width="60" height="20" rx="2" fill="#374151"/>
  <circle cx="220" cy="350" r="8" fill="#4B5563"/>
  <circle cx="240" cy="350" r="8" fill="#4B5563"/>
  <circle cx="260" cy="350" r="8" fill="#4B5563"/>
  <circle cx="220" cy="375" r="8" fill="#4B5563"/>
  <circle cx="240" cy="375" r="8" fill="#4B5563"/>
  <circle cx="260" cy="375" r="8" fill="#4B5563"/>
  <circle cx="220" cy="400" r="8" fill="#4B5563"/>
  <circle cx="240" cy="400" r="8" fill="#4B5563"/>
  <circle cx="260" cy="400" r="8" fill="#10B981"/>
  
  <!-- Pen -->
  <rect x="620" y="250" width="5" height="80" rx="2.5" transform="rotate(45, 620, 250)" fill="#1E3A8A"/>
  <path d="M650 220 L660 230 L640 250 L630 240 Z" fill="#10B981"/>
  
  <!-- Coins -->
  <circle cx="180" y="450" r="15" fill="#FCD34D" stroke="#F59E0B" stroke-width="2"/>
  <circle cx="200" y="470" r="15" fill="#FCD34D" stroke="#F59E0B" stroke-width="2"/>
  <circle cx="160" y="470" r="15" fill="#FCD34D" stroke="#F59E0B" stroke-width="2"/>
  <text x="180" y="455" font-family="Arial" font-size="10" font-weight="bold" fill="#92400E" text-anchor="middle">$</text>
  <text x="200" y="475" font-family="Arial" font-size="10" font-weight="bold" fill="#92400E" text-anchor="middle">$</text>
  <text x="160" y="475" font-family="Arial" font-size="10" font-weight="bold" fill="#92400E" text-anchor="middle">$</text>
  
  <!-- Gradients -->
  <defs>
    <linearGradient id="gradient1" x1="0%" y1="0%" x2="100%" y2="100%">
      <stop offset="0%" stop-color="#1E3A8A" />
      <stop offset="100%" stop-color="#10B981" />
    </linearGradient>
    <linearGradient id="gradient2" x1="100%" y1="0%" x2="0%" y2="100%">
      <stop offset="0%" stop-color="#1E3A8A" />
      <stop offset="100%" stop-color="#10B981" />
    </linearGradient>
    <linearGradient id="gradient3" x1="0%" y1="100%" x2="100%" y2="0%">
      <stop offset="0%" stop-color="#1E3A8A" />
      <stop offset="100%" stop-color="#10B981" />
    </linearGradient>
  </defs>
</svg>