<svg xmlns="http://www.w3.org/2000/svg" viewBox="0 0 200 200" width="200" height="200">
  <defs>
    <!-- Enhanced Gradients -->
    <linearGradient id="primaryGradient" x1="0%" y1="0%" x2="100%" y2="100%">
      <stop offset="0%" stop-color="#6366F1" />
      <stop offset="50%" stop-color="#4F46E5" />
      <stop offset="100%" stop-color="#1E3A8A" />
    </linearGradient>
    
    <linearGradient id="accentGradient" x1="0%" y1="0%" x2="100%" y2="100%">
      <stop offset="0%" stop-color="#10B981" />
      <stop offset="50%" stop-color="#059669" />
      <stop offset="100%" stop-color="#047857" />
    </linearGradient>
    
    <!-- Professional Shadow Filter -->
    <filter id="professionalShadow" x="-50%" y="-50%" width="200%" height="200%">
      <feDropShadow dx="0" dy="8" stdDeviation="16" flood-color="rgba(99, 102, 241, 0.2)" />
    </filter>
    
    <!-- Subtle Glow Effect -->
    <filter id="subtleGlow" x="-50%" y="-50%" width="200%" height="200%">
      <feGaussianBlur stdDeviation="3" result="coloredBlur"/>
      <feMerge> 
        <feMergeNode in="coloredBlur"/>
        <feMergeNode in="SourceGraphic"/>
      </feMerge>
    </filter>
  </defs>
  
  <!-- Background Circle -->
  <circle cx="100" cy="100" r="90" fill="rgba(99, 102, 241, 0.05)" />
  
  <!-- Logo Symbol Container -->
  <g transform="translate(100, 100)">
    <!-- Modern Shield Base -->
    <path 
      d="M0 -60 L60 -30 V30 C60 60 30 80 0 90 C-30 80 -60 60 -60 30 V-30 Z" 
      fill="url(#primaryGradient)" 
      filter="url(#professionalShadow)"
      opacity="0.95"
    />
    
    <!-- Inner Shield Accent -->
    <path 
      d="M0 -40 L45 -20 V30 C45 50 22.5 65 0 72.5 C-22.5 65 -45 50 -45 30 V-20 Z" 
      fill="rgba(255, 255, 255, 0.15)" 
      stroke="rgba(255, 255, 255, 0.3)" 
      stroke-width="1.5"
    />
    
    <!-- Stylized ATS Monogram -->
    <g transform="translate(-30, -10)" filter="url(#subtleGlow)">
      <!-- A -->
      <path 
        d="M15 40 L25 20 L35 40 M20 32 H30" 
        stroke="#FFFFFF" 
        stroke-width="5" 
        stroke-linecap="round" 
        stroke-linejoin="round"
        fill="none"
      />
      
      <!-- T -->
      <path 
        d="M45 20 L45 40 M37 20 H53" 
        stroke="#FFFFFF" 
        stroke-width="5" 
        stroke-linecap="round" 
        stroke-linejoin="round"
        fill="none"
      />
      
      <!-- S -->
      <path 
        d="M65 20 C75 20 75 30 65 30 C55 30 55 40 65 40" 
        stroke="#FFFFFF" 
        stroke-width="5" 
        stroke-linecap="round" 
        stroke-linejoin="round"
        fill="none"
      />
    </g>
    
    <!-- Professional Accent Element -->
    <circle 
      cx="0" 
      cy="50" 
      r="12" 
      fill="url(#accentGradient)" 
      filter="url(#subtleGlow)"
    />
    
    <!-- Checkmark in Accent -->
    <path 
      d="M-6 50 L-1 55 L6 43" 
      stroke="#FFFFFF" 
      stroke-width="3" 
      fill="none" 
      stroke-linecap="round" 
      stroke-linejoin="round"
    />
  </g>
  
  <!-- Subtle Ring Accent -->
  <circle 
    cx="100" 
    cy="100" 
    r="85" 
    fill="none" 
    stroke="url(#accentGradient)" 
    stroke-width="1" 
    opacity="0.3"
  />
</svg>